<svg width="235" height="155" viewBox="0 0 235 155" fill="none" xmlns="http://www.w3.org/2000/svg"> <rect width="235" height="155" fill="#12100E"/> <path d="M107.197 87.696C107.007 87.696 102.866 87.548 102.761 87.548C102.332 87.548 99.9716 87.687 99.7906 87.687C99.4496 87.687 99.1876 87.636 98.9686 87.526C98.4416 87.263 98.4476 86.88 98.4746 86.727C98.5716 86.178 99.2136 86.059 99.8086 85.991C100.558 85.899 100.714 85.562 100.865 84.448C100.99 83.446 101.009 82.402 101.018 81.418C101.038 79.137 101.037 76.855 101.036 74.574C101.036 74.574 101.03 64.376 101.03 64.24C101.031 63.495 101.031 62.65 100.7 62.112C100.414 61.648 99.3106 61.648 98.8386 61.648C98.3036 61.648 98.0306 61.289 98.0026 60.954C97.9666 60.52 98.3076 60.118 98.7796 60.038C98.9656 60.007 102.51 60.118 103.064 60.118C103.064 60.118 104.478 60.086 105.111 60.06C105.825 60.031 106.562 60 107.293 60C108.212 60 108.978 60.047 109.703 60.148C112.202 60.497 114.01 61.439 115.075 62.949C116.441 64.885 116.714 67.339 115.845 69.858C115.115 71.975 113.544 73.745 111.535 74.713C110.547 75.189 109.466 75.491 108.321 75.608C107.793 75.663 107.281 75.667 106.76 75.667C106.562 75.667 106.191 75.65 105.919 75.532C105.612 75.4 105.428 75.097 105.451 74.76C105.476 74.404 105.728 74.091 106.065 73.999C106.345 73.922 107.396 73.913 107.479 73.906C107.976 73.867 108.46 73.767 108.917 73.611C109.888 73.278 110.725 72.703 111.337 71.948C112.493 70.521 112.778 68.457 112.119 66.287C111.518 64.307 109.997 62.798 108.15 62.349C107.691 62.239 105.863 62.208 105.486 62.257C105.156 62.3 105.055 62.41 105.055 62.596V75.211C105.055 75.849 105.052 76.488 105.049 77.127C105.04 78.988 105.114 83.058 105.114 83.058C105.141 83.818 105.169 84.603 105.377 85.276C105.556 85.856 106.031 85.942 107.073 85.999C107.073 85.999 108.155 86.011 108.392 86.458C108.453 86.573 108.568 86.878 108.324 87.244C108.022 87.696 107.401 87.696 107.197 87.696Z" fill="#F9B242"/> <path d="M127.313 87.942C127.167 87.942 126.825 87.918 126.798 87.918C125.759 87.908 123.037 87.816 122.906 87.816C122.496 87.816 122.084 87.837 121.673 87.859C121.411 87.872 120.642 87.906 120.516 87.914C120.311 87.926 119.482 87.925 119.306 87.896C118.72 87.799 118.512 87.39 118.512 87.069C118.512 86.937 118.558 86.278 119.466 86.278L119.561 86.279C120.442 86.222 120.651 86.006 120.823 84.993C120.986 84.038 121 83.021 121.014 82.038C121.014 82.038 121.03 64.641 121.03 64.505C121.031 63.76 121.031 62.915 120.7 62.377C120.414 61.913 119.31 61.913 118.839 61.913C118.304 61.913 118.031 61.554 118.003 61.219C117.967 60.784 118.308 60.382 118.78 60.303C118.98 60.27 119.788 60.26 119.951 60.266C120.097 60.272 121.604 60.308 122.196 60.338C122.196 60.338 125.835 60.397 126.356 60.392C126.88 60.387 130.156 60.381 131.061 60.359C131.061 60.359 131.894 60.37 132.038 60.37C132.408 60.37 132.932 60.348 133.208 60.164C133.371 60.055 133.536 60 133.7 60C133.912 60 134.111 60.095 134.247 60.26C134.552 60.631 134.495 61.268 134.274 62.391C134.259 62.469 134.142 64.078 134.141 64.158C134.136 64.67 134.13 65.371 133.636 65.685C133.524 65.756 133.398 65.793 133.269 65.793H133.268C132.617 65.793 132.432 65.039 132.218 64.166C132.17 63.971 132.105 63.703 132.072 63.63C131.624 63.026 130.634 62.938 130.231 62.93C130.231 62.93 125.171 62.805 125.09 62.802C125.069 62.989 125.087 71.87 125.1 72.054L128.188 72.03C128.478 72.03 128.787 72.043 129.106 72.057C129.425 72.071 129.754 72.086 130.079 72.086C130.564 72.086 131.269 72.057 131.784 71.802C131.792 71.791 131.877 71.684 131.934 71.614C132.153 71.342 132.425 71.004 132.86 71.004C133.091 71.004 133.302 71.107 133.44 71.285C133.713 71.639 133.613 72.136 133.498 72.574C133.321 73.338 133.286 74.126 133.251 74.889C133.251 74.889 133.197 76.398 133.143 76.718C133.033 77.379 132.578 77.43 132.442 77.43C131.848 77.43 131.563 76.66 131.531 76.394C131.404 75.317 131.104 74.843 130.427 74.646C129.928 74.501 129.367 74.481 128.835 74.481C128.835 74.481 125.296 74.407 125.138 74.407C125.122 74.407 125.108 74.407 125.094 74.407C125.091 74.556 125.106 74.752 125.113 74.843C125.12 74.941 125.115 81.273 125.165 82.807L125.172 83.032C125.196 83.821 125.221 84.636 125.398 85.365C125.564 86.047 125.906 86.173 126.995 86.253C126.995 86.253 127.25 86.247 127.326 86.247C128.369 86.247 128.525 86.762 128.525 87.069C128.526 87.273 128.438 87.942 127.313 87.942Z" fill="#F9B242"/> </svg>